<?xml version="1.0" standalone="no"?>
<!DOCTYPE svg PUBLIC "-//W3C//DTD SVG 20010904//EN"
 "http://www.w3.org/TR/2001/REC-SVG-20010904/DTD/svg10.dtd">
<svg xmlns="http://www.w3.org/2000/svg" width="306" height="143" viewBox="0 0 306 143" fill="none">
<path d="M142 1C134.268 1 128 7.26801 128 15V25.1157C126.842 28.9779 125.198 33.024 123.012 35.2098C119.501 38.7213 111.051 40.9715 106.331 42H15C7.26801 42 1 48.268 1 56V128C1 135.732 7.26801 142 15 142H244C251.732 142 258 135.732 258 128V123.164C259.024 118.417 261.088 110.887 264.385 107.59C267.684 104.291 275.343 102.105 280.172 101H291C298.732 101 305 94.732 305 87V15C305 7.26801 298.732 1 291 1H142Z" fill="black" stroke="black" stroke-linecap="round"/>
</svg>
